<svg width="73" height="31" viewBox="0 0 73 31" fill="none" xmlns="http://www.w3.org/2000/svg">
<path d="M6.52708 22.1906C6.97155 22.1791 7.41557 22.2259 7.84687 22.3296C8.14938 22.3997 8.43325 22.5298 8.6802 22.7116C8.86958 22.86 9.01356 23.0549 9.09687 23.2756C9.16981 23.4971 9.1974 23.73 9.17812 23.9616C9.18013 24.1752 9.1402 24.3872 9.06041 24.5866L6.41146 30.8525H3.79687L4.58333 28.9175H3.48021L2.66667 30.8525H0L2.9375 23.8836C3.03397 23.6332 3.17146 23.3993 3.34479 23.1906C3.46258 23.0286 3.60597 22.8852 3.76979 22.7656C3.95966 22.6306 4.1706 22.5253 4.39479 22.4536C4.68529 22.3601 4.98519 22.2961 5.28958 22.2626C5.69964 22.209 6.11329 22.185 6.52708 22.1906ZM6.25 24.8116C6.28263 24.7578 6.30059 24.697 6.30223 24.6347C6.30387 24.5725 6.28913 24.5109 6.25937 24.4556C6.23213 24.4059 6.18995 24.3652 6.13831 24.3388C6.08667 24.3124 6.02795 24.3015 5.96979 24.3076C5.81527 24.312 5.66629 24.3638 5.54479 24.4556C5.40922 24.5452 5.30128 24.6681 5.23229 24.8116L4.48229 26.5645H5.53229L6.25 24.8116Z" fill="white"/>
<path d="M17.8536 22.3298L14.9161 29.2985C14.8117 29.5473 14.6715 29.7809 14.4995 29.9924C14.3782 30.1523 14.2316 30.293 14.0651 30.4094C13.873 30.5409 13.6626 30.6459 13.4401 30.7214C13.1531 30.8158 12.8562 30.8799 12.5547 30.9124C12.1467 30.9576 11.7362 30.978 11.3255 30.9734C10.881 30.9849 10.437 30.9381 10.0057 30.8344C9.70529 30.7634 9.4222 30.6366 9.17239 30.4614C8.98166 30.3179 8.83719 30.1255 8.75572 29.9064C8.6817 29.6824 8.6541 29.4467 8.67447 29.2125C8.6745 29.1049 8.68355 28.9976 8.70156 28.8915C8.72238 28.7891 8.75271 28.6887 8.79218 28.5915L11.4432 22.3208H14.0557L11.6057 28.3515C11.5731 28.4053 11.5551 28.4661 11.5535 28.5284C11.5519 28.5906 11.5666 28.6522 11.5964 28.7075C11.6236 28.7572 11.6658 28.7979 11.7174 28.8243C11.7691 28.8507 11.8278 28.8615 11.8859 28.8555C12.0405 28.8511 12.1894 28.7992 12.3109 28.7075C12.4465 28.6179 12.5544 28.495 12.6234 28.3515L15.1818 22.3208H17.8578L17.8536 22.3298Z" fill="white"/>
<path d="M24.7591 24.2996H22.5987L19.8237 30.8516H17.2383L20.0133 24.2996H17.9164L18.7497 22.3296H25.6018L24.7591 24.2996Z" fill="white"/>
<path d="M29.5462 22.1907C30.016 22.1783 30.4835 22.2579 30.9201 22.4247C31.274 22.5615 31.5742 22.8014 31.7785 23.1107C31.9809 23.4476 32.0781 23.8332 32.0587 24.2216C32.0402 24.7353 31.9237 25.2413 31.7149 25.7146C31.5066 26.2526 31.2983 26.7559 31.0899 27.2245C30.8816 27.6935 30.6826 28.1535 30.4847 28.5955C30.3028 29.0366 30.079 29.4608 29.816 29.8625C29.6252 30.1472 29.3799 30.3945 29.0931 30.5914C28.8272 30.7616 28.5243 30.8714 28.2076 30.9124C27.8337 30.9678 27.4558 30.9939 27.0774 30.9904H25.8566C25.5191 30.99 25.1836 30.9401 24.8618 30.8424C24.5612 30.7572 24.2958 30.5842 24.1024 30.3475C23.8998 30.0793 23.7865 29.7586 23.7774 29.4275C23.7736 28.9342 23.8802 28.4458 24.0899 27.9955L24.5514 26.8956C24.6868 26.5746 24.841 26.2186 24.9941 25.8286C25.1472 25.4386 25.3191 25.0566 25.4733 24.6826C25.6194 24.3233 25.8107 23.9824 26.0431 23.6677C26.2624 23.3705 26.5276 23.1072 26.8295 22.8867C27.1308 22.6695 27.4667 22.5006 27.8243 22.3867C28.2056 22.2624 28.606 22.2009 29.0087 22.2047H29.542L29.5462 22.1907ZM29.1941 24.8116C29.2242 24.757 29.2407 24.6965 29.2423 24.6347C29.244 24.5729 29.2306 24.5116 29.2035 24.4556C29.1719 24.4046 29.1255 24.3635 29.0701 24.3372C29.0146 24.3109 28.9524 24.3007 28.891 24.3076C28.7367 24.2935 28.5823 24.3336 28.4566 24.4206C28.3393 24.5351 28.2525 24.6751 28.2035 24.8286L26.6941 28.4215C26.5764 28.7215 26.5399 28.9075 26.5899 28.9855C26.6244 29.0328 26.6719 29.07 26.727 29.0929C26.7822 29.1159 26.8429 29.1237 26.9024 29.1155C27.0562 29.1244 27.2088 29.0847 27.3368 29.0025C27.471 28.8983 27.5715 28.7595 27.6264 28.6025L29.1941 24.8116Z" fill="white"/>
<path d="M41.0336 22.3298L40.1388 24.4388H36.2242L35.5992 25.8618H38.9617L38.1034 27.9008H34.77L33.52 30.8428H30.918L34.5336 22.3208H41.0336V22.3298Z" fill="white"/>
<path d="M45.4837 22.1907C45.9535 22.1783 46.421 22.2579 46.8576 22.4247C47.2115 22.5615 47.5117 22.8014 47.716 23.1107C47.9184 23.4476 48.0156 23.8332 47.9962 24.2216C47.9777 24.7353 47.8612 25.2413 47.6524 25.7146C47.4441 26.2526 47.2358 26.7559 47.0275 27.2245C46.8191 27.6935 46.6201 28.1535 46.4222 28.5955C46.2403 29.0367 46.0165 29.4608 45.7535 29.8625C45.5627 30.1472 45.3174 30.3945 45.0306 30.5914C44.7647 30.7616 44.4619 30.8714 44.1452 30.9124C43.7713 30.9678 43.3933 30.9939 43.0149 30.9904H41.7941C41.4566 30.99 41.1211 30.9401 40.7993 30.8424C40.4988 30.7572 40.2333 30.5842 40.04 30.3475C39.8373 30.0794 39.7239 29.7586 39.7149 29.4275C39.7111 28.9342 39.8177 28.4458 40.0275 27.9955L40.4889 26.8956C40.6243 26.5746 40.7785 26.2186 40.9316 25.8286C41.0847 25.4386 41.2566 25.0566 41.4108 24.6826C41.5569 24.3233 41.7482 23.9824 41.9806 23.6677C42.1999 23.3705 42.4651 23.1072 42.767 22.8867C43.0683 22.6695 43.4042 22.5006 43.7618 22.3867C44.1431 22.2624 44.5435 22.2009 44.9462 22.2047H45.4795L45.4837 22.1907ZM45.1399 24.8116C45.17 24.757 45.1865 24.6965 45.1882 24.6347C45.1898 24.5729 45.1765 24.5116 45.1493 24.4556C45.1177 24.4046 45.0714 24.3635 45.0159 24.3372C44.9604 24.3109 44.8982 24.3007 44.8368 24.3076C44.6825 24.2935 44.5281 24.3336 44.4024 24.4206C44.2852 24.5351 44.1984 24.6751 44.1493 24.8286L42.64 28.4215C42.5222 28.7215 42.4858 28.9075 42.5358 28.9855C42.5702 29.0328 42.6177 29.07 42.6729 29.0929C42.728 29.1159 42.7887 29.1237 42.8483 29.1155C43.002 29.1244 43.1546 29.0847 43.2827 29.0025C43.4169 28.8983 43.5173 28.7595 43.5722 28.6025L45.1399 24.8116Z" fill="white"/>
<path d="M54.2953 22.3384C54.6844 22.3527 55.0635 22.4599 55.3984 22.6504C55.6561 22.8054 55.8652 23.0245 56.0036 23.2844C56.1295 23.5417 56.1886 23.8245 56.1755 24.1085C56.1582 24.4126 56.0878 24.7118 55.9672 24.9935C55.8543 25.2801 55.6989 25.5496 55.5057 25.7936C55.3377 26.0007 55.1501 26.1925 54.9453 26.3666C54.7605 26.5221 54.5574 26.6564 54.3401 26.7666C54.1318 26.8666 53.9328 26.9576 53.7349 27.0356C53.9107 27.0859 54.0682 27.1824 54.1897 27.3143C54.3113 27.4461 54.3919 27.6081 54.4224 27.7817C54.5029 28.2288 54.4397 28.6889 54.2412 29.1007L53.4995 30.8538H51.2391C51.1231 30.8509 51.0122 30.8079 50.9266 30.7328C50.8273 30.6548 50.8092 30.5331 50.8724 30.3678L51.686 28.4587C51.7138 28.4022 51.7259 28.3396 51.7211 28.2773C51.7164 28.2149 51.695 28.1547 51.6589 28.1027C51.6246 28.0542 51.5777 28.0151 51.5229 27.9891C51.4682 27.9632 51.4074 27.9513 51.3464 27.9547H50.8308L49.6099 30.8618H46.9453L50.5068 22.3394H54.2943L54.2953 22.3384ZM53.1568 24.8115C53.1848 24.7557 53.1985 24.6943 53.1969 24.6324C53.1953 24.5705 53.1783 24.5099 53.1474 24.4555C53.1176 24.4062 53.0737 24.3661 53.0209 24.3399C52.9681 24.3136 52.9087 24.3024 52.8495 24.3075H52.3703L51.8005 25.6436H52.2974C52.4488 25.6364 52.5943 25.5847 52.7141 25.4955C52.8497 25.406 52.9576 25.283 53.0266 25.1395L53.1568 24.8115Z" fill="white"/>
<path d="M63.397 22.9106C63.6177 23.2039 63.7624 23.5436 63.8189 23.9013C63.8754 24.2591 63.8422 24.6246 63.722 24.9676C63.7179 24.9969 63.712 25.026 63.7043 25.0546C63.6992 25.0846 63.6901 25.1138 63.6772 25.1416C63.6512 25.2263 63.6061 25.3045 63.5451 25.3705C63.484 25.4365 63.4086 25.4888 63.3241 25.5236C63.1493 25.5924 62.9619 25.6264 62.773 25.6236H60.622L60.9563 24.8076C60.9864 24.753 61.003 24.6924 61.0046 24.6307C61.0062 24.5689 60.9929 24.5076 60.9658 24.4516C60.9342 24.4006 60.8878 24.3594 60.8323 24.3332C60.7768 24.3069 60.7146 24.2966 60.6532 24.3036C60.4989 24.2894 60.3445 24.3296 60.2188 24.4166C60.1016 24.5311 60.0148 24.6711 59.9657 24.8246L58.4564 28.4176C58.3387 28.7176 58.3022 28.9036 58.3522 28.9816C58.3866 29.0289 58.4341 29.0661 58.4893 29.0891C58.5444 29.112 58.6051 29.1198 58.6647 29.1116C58.8184 29.1205 58.971 29.0808 59.0991 28.9986C59.2332 28.8944 59.3336 28.7557 59.3886 28.5986L59.7407 27.7656H61.9553C62.1043 27.7558 62.2529 27.7908 62.3803 27.8656C62.4845 27.9346 62.4845 28.0566 62.4168 28.2386C62.3897 28.2996 62.3626 28.3596 62.3355 28.4126C62.3085 28.4656 62.2814 28.5256 62.2543 28.5866C62.0724 29.0278 61.8485 29.4519 61.5855 29.8536C61.3948 30.1384 61.1495 30.3857 60.8626 30.5826C60.5967 30.7528 60.2939 30.8626 59.9772 30.9036C59.6033 30.959 59.2253 30.9851 58.847 30.9816H57.6262C57.2887 30.9812 56.9532 30.9313 56.6314 30.8336C56.3308 30.7484 56.0653 30.5754 55.872 30.3386C55.6694 30.0705 55.556 29.7497 55.547 29.4186C55.5432 28.9253 55.6497 28.437 55.8595 27.9866L56.3209 26.8866C56.4563 26.5656 56.6105 26.2096 56.7637 25.8196C56.9168 25.4296 57.0886 25.0476 57.2428 24.6736C57.3889 24.3143 57.5803 23.9734 57.8126 23.6586C58.032 23.3615 58.2972 23.0981 58.5991 22.8776C58.9003 22.6604 59.2363 22.4915 59.5939 22.3776C59.9752 22.2533 60.3756 22.1918 60.7783 22.1956H61.322C61.7013 22.1612 62.0839 22.2075 62.4425 22.331C62.8011 22.4546 63.127 22.6525 63.397 22.9106Z" fill="white"/>
<path d="M72.9166 22.3298L72.0218 24.4388H68.1072L67.628 25.5148H70.7832L69.9249 27.5538H66.7999L66.3301 28.6298H70.2447L69.3134 30.8428H62.7832L66.3988 22.3208H72.9166V22.3298Z" fill="white"/>
<path fill-rule="evenodd" clip-rule="evenodd" d="M46.3578 7.16774C45.7174 6.73098 45.0468 6.33672 44.3505 5.98771C43.6505 5.63842 42.9254 5.33765 42.1807 5.0877C39.1542 4.05452 35.8842 3.86794 32.7515 4.54969C29.6067 5.23779 26.7276 6.76277 24.4442 8.94977C24.4376 8.95667 24.4295 8.96219 24.4206 8.96596C24.4116 8.96973 24.4019 8.97168 24.3921 8.97168C24.3824 8.97168 24.3727 8.96973 24.3637 8.96596C24.3547 8.96219 24.3467 8.95667 24.34 8.94977C24.3281 8.94054 24.3205 8.9272 24.3187 8.91261C24.317 8.89802 24.3213 8.88335 24.3307 8.87176C26.1365 5.47067 29.2035 2.84204 32.9276 1.50364C36.7587 0.164972 40.9591 0.168159 44.788 1.51264C45.6698 1.81359 46.5253 2.18142 47.3463 2.61266C48.2354 3.10959 49.0846 3.66949 49.8869 4.28768C49.8946 4.2935 49.901 4.30076 49.9057 4.30902C49.9103 4.31729 49.9132 4.32638 49.9141 4.33574C49.915 4.34511 49.9138 4.35455 49.9108 4.36348C49.9077 4.37241 49.9028 4.38065 49.8963 4.38769L46.4588 7.16473C46.4439 7.17412 46.4266 7.17936 46.4087 7.17989C46.3909 7.18042 46.3733 7.17621 46.3578 7.16774Z" fill="white"/>
<path fill-rule="evenodd" clip-rule="evenodd" d="M47.8863 20.6536C47.8863 20.3756 47.8863 20.1066 47.8686 19.8376L46.9102 19.8986C46.9196 20.1586 46.9279 20.3986 46.9279 20.6626H47.8863V20.6536ZM47.5738 17.9376C47.4925 17.6256 47.4019 17.3126 47.3029 17.0086L46.3894 17.3086C46.4936 17.5866 46.5706 17.8726 46.6425 18.1586L47.5738 17.9416V17.9376ZM46.5071 15.2376C46.353 14.9596 46.1727 14.6736 45.9915 14.4136L45.1873 14.9136C45.3498 15.1566 45.5123 15.4136 45.6571 15.6686L46.5071 15.2346V15.2376ZM44.7623 12.9036C44.5363 12.6696 44.2925 12.4436 44.0477 12.2266L43.4061 12.9126C43.6321 13.1126 43.8488 13.3126 44.0571 13.5286L44.7623 12.9036ZM42.4477 11.0636C42.1582 10.8896 41.8779 10.7336 41.58 10.5866L41.1457 11.4106C41.4165 11.5496 41.679 11.6886 41.9415 11.8446L42.4477 11.0636ZM39.7269 9.86357C39.4144 9.76357 39.0852 9.68957 38.7592 9.62057L38.5602 10.5206C38.8582 10.5816 39.1571 10.6596 39.4456 10.7466L39.7259 9.86157L39.7269 9.86357ZM36.7706 9.36857C36.4363 9.35957 36.1102 9.35957 35.7675 9.36857L35.8123 10.2886C36.12 10.2799 36.4272 10.2799 36.7342 10.2886L36.7706 9.36857ZM33.7779 9.61157C33.4529 9.68057 33.1269 9.75957 32.8102 9.85457L33.0998 10.7316C33.3894 10.6446 33.6873 10.5666 33.9852 10.5056L33.7769 9.61157H33.7779ZM30.9571 10.5926C30.6592 10.7406 30.3696 10.8926 30.0894 11.0696L30.605 11.8506C30.8649 11.6924 31.1333 11.5475 31.4092 11.4166L30.9571 10.5926ZM28.4894 12.2246C28.2362 12.4416 28.0009 12.6676 27.7748 12.9016L28.48 13.5266C28.6884 13.3096 28.905 13.1096 29.1311 12.9106L28.4894 12.2246ZM26.5362 14.4116C26.355 14.6806 26.1842 14.9586 26.03 15.2356L26.88 15.6696C27.0248 15.4096 27.1779 15.1576 27.3498 14.9056L26.5362 14.4106V14.4116ZM25.2435 17.0066C25.1394 17.3066 25.0446 17.6226 24.9727 17.9356L25.904 18.1436C25.9758 17.8576 26.0581 17.5706 26.1571 17.2936L25.2435 17.0076V17.0066ZM24.6737 19.8356C24.656 20.1046 24.6467 20.3826 24.656 20.6516H25.6144C25.6144 20.3996 25.6144 20.1396 25.6321 19.8876L24.6737 19.8356Z" fill="white"/>
<path fill-rule="evenodd" clip-rule="evenodd" d="M47.2164 9.25977C48.2121 10.1476 49.0895 11.1502 49.8289 12.2448L49.8654 12.2968C50.7522 13.6272 51.4172 15.0824 51.8362 16.6098C52.2006 17.929 52.38 19.289 52.3695 20.6538H49.9737C49.9842 19.4918 49.8353 18.3335 49.531 17.2088C49.172 15.9089 48.6048 14.6705 47.8497 13.5378L47.8227 13.4948C47.206 12.579 46.4744 11.7394 45.6445 10.9948L45.7164 9.52776L47.2164 9.25977Z" fill="white"/>
<path fill-rule="evenodd" clip-rule="evenodd" d="M22.8671 20.6368V20.6538H20.4713C20.4487 18.0696 21.1084 15.522 22.3888 13.2488C23.6691 10.9755 25.5284 9.0506 27.7931 7.65365C29.5519 6.56276 31.5182 5.81704 33.5787 5.45952C35.6393 5.102 37.7531 5.13977 39.7983 5.57063C41.8364 5.99738 43.768 6.80211 45.4848 7.93966L43.5775 9.48468C41.3995 8.18421 38.882 7.50331 36.3171 7.52101C33.7523 7.53871 31.2452 8.25428 29.0869 9.58468C27.1668 10.7671 25.59 12.3971 24.5036 14.3227C23.4149 16.2623 22.8521 18.4336 22.8671 20.6368Z" fill="white"/>
<path fill-rule="evenodd" clip-rule="evenodd" d="M51.0774 5.03285L38.4931 18.8116C38.4811 19.1017 38.404 19.3858 38.267 19.6446C38.1285 19.911 37.9274 20.1428 37.6795 20.3216C37.4636 20.482 37.2164 20.5993 36.9525 20.6665C36.6886 20.7336 36.4134 20.7493 36.143 20.7126C35.598 20.642 35.1041 20.3674 34.7691 19.9486C34.602 19.7414 34.4798 19.5041 34.4099 19.2507C34.3399 18.9974 34.3236 18.7332 34.3618 18.4736C34.4353 17.9504 34.7214 17.4762 35.1576 17.1547C35.3375 17.023 35.5393 16.9215 35.7545 16.8547C35.9611 16.7872 36.178 16.7534 36.3962 16.7547L51.0045 4.95486C51.0118 4.94862 51.0204 4.94389 51.0297 4.94095C51.039 4.93802 51.0489 4.93693 51.0586 4.93778C51.0684 4.93862 51.0778 4.94137 51.0865 4.94585C51.0951 4.95034 51.1026 4.95646 51.1087 4.96385C51.1039 4.98886 51.0932 5.01247 51.0774 5.03285Z" fill="white"/>
</svg>
