<svg width="33" height="32" viewBox="0 0 33 32" fill="none" xmlns="http://www.w3.org/2000/svg">
<path d="M16.7012 6.10352e-05C13.5367 6.10352e-05 10.4432 0.938444 7.81206 2.69655C5.18087 4.45465 3.13011 6.95351 1.91911 9.87713C0.708104 12.8007 0.391251 16.0178 1.00861 19.1215C1.62598 22.2252 3.14983 25.0761 5.38747 27.3138C7.62511 29.5514 10.476 31.0753 13.5797 31.6926C16.6834 32.31 19.9005 31.9931 22.8241 30.7821C25.7477 29.5711 28.2466 27.5204 30.0047 24.8892C31.7628 22.258 32.7012 19.1646 32.7012 16.0001C32.7012 11.7566 31.0155 7.68693 28.0149 4.68635C25.0143 1.68577 20.9446 6.10352e-05 16.7012 6.10352e-05ZM25.6122 23.7721C25.6106 23.9435 25.5752 24.1129 25.5079 24.2705C25.4406 24.4282 25.3428 24.571 25.2201 24.6907C25.0974 24.8104 24.9523 24.9046 24.793 24.968C24.6338 25.0314 24.4636 25.0627 24.2922 25.0601H9.07918C8.90779 25.0627 8.73757 25.0314 8.57832 24.968C8.41906 24.9046 8.27392 24.8104 8.15123 24.6907C8.02855 24.571 7.93075 24.4282 7.86347 24.2705C7.79618 24.1129 7.76074 23.9435 7.75918 23.7721V8.38006C7.76074 8.20866 7.79618 8.03926 7.86347 7.88161C7.93075 7.72396 8.02855 7.58117 8.15123 7.46146C8.27392 7.34175 8.41906 7.24749 8.57832 7.18409C8.73757 7.12069 8.90779 7.08942 9.07918 7.09206H24.2922C24.4636 7.08942 24.6338 7.12069 24.793 7.18409C24.9523 7.24749 25.0974 7.34175 25.2201 7.46146C25.3428 7.58117 25.4406 7.72396 25.5079 7.88161C25.5752 8.03926 25.6106 8.20866 25.6122 8.38006V23.7721Z" fill="white"/>
</svg>
