<svg width="33" height="32" viewBox="0 0 33 32" fill="none" xmlns="http://www.w3.org/2000/svg">
<path d="M16.6992 6.4822e-05C13.5347 6.4822e-05 10.4413 0.938449 7.8101 2.69655C5.17892 4.45465 3.12816 6.95351 1.91715 9.87713C0.706151 12.8007 0.389298 16.0178 1.00666 19.1215C1.62402 22.2252 3.14788 25.0761 5.38552 27.3138C7.62316 29.5514 10.4741 31.0753 13.5778 31.6926C16.6815 32.31 19.8985 31.9931 22.8222 30.7821C25.7458 29.5711 28.2446 27.5204 30.0027 24.8892C31.7608 22.258 32.6992 19.1646 32.6992 16.0001C32.7007 13.8985 32.2878 11.8173 31.4842 9.87542C30.6807 7.93356 29.5022 6.16916 28.0162 4.68313C26.5301 3.19711 24.7657 2.01861 22.8239 1.21505C20.882 0.411484 18.8008 -0.00138149 16.6992 6.4822e-05ZM25.2192 19.7721C25.2378 20.4539 25.1208 21.1326 24.8752 21.769C24.6295 22.4053 24.2601 22.9865 23.7882 23.4791C23.3013 23.9357 22.7288 24.2915 22.1037 24.5259C21.4786 24.7604 20.8134 24.8688 20.1462 24.8451H13.0572C12.3901 24.8688 11.7248 24.7604 11.0998 24.5259C10.4747 24.2915 9.9022 23.9357 9.41523 23.4791C8.93105 22.9954 8.55356 22.4156 8.30709 21.7771C8.06063 21.1387 7.95064 20.4556 7.98423 19.7721V12.6181C7.9466 11.942 8.05205 11.2656 8.29368 10.6331C8.53532 10.0005 8.9077 9.42612 9.38649 8.94732C9.86528 8.46853 10.4397 8.09616 11.0722 7.85452C11.7048 7.61289 12.3812 7.50744 13.0572 7.54506H20.2112C20.8825 7.51482 21.5526 7.62585 22.1783 7.87097C22.8039 8.1161 23.3711 8.48985 23.8432 8.96804C24.3153 9.44624 24.6817 10.0182 24.9187 10.647C25.1557 11.2757 25.2581 11.9472 25.2192 12.6181V19.7721Z" fill="white"/>
</svg>
