<svg width="15" height="14" viewBox="0 0 15 14" fill="none" xmlns="http://www.w3.org/2000/svg">
<path d="M0.00296978 3.63162C-0.00790765 3.01024 0.117761 2.39405 0.371105 1.82656C0.624449 1.25907 0.999284 0.754118 1.46915 0.347358C1.61421 0.21298 1.78794 0.113358 1.97718 0.0560236C2.16642 -0.00131104 2.36621 -0.0148664 2.56146 0.0164088C2.73739 0.0438318 2.91562 0.0536548 3.09349 0.0457324C3.23737 0.0298027 3.38234 0.0640502 3.50389 0.142668C3.62544 0.221286 3.71612 0.339455 3.7606 0.477213C4.15647 1.50459 4.53978 2.53301 4.92413 3.56668C5.05399 3.92066 4.82986 4.19505 4.64031 4.45268C4.41294 4.7498 4.16406 5.02983 3.89569 5.29051C3.62969 5.56175 3.59409 5.7157 3.77736 6.04664C4.78689 7.97083 6.40808 9.50433 8.38537 10.4054C8.45659 10.4347 8.52675 10.4766 8.59483 10.5101C8.71177 10.5775 8.84913 10.6002 8.98155 10.5743C9.11397 10.5483 9.23252 10.4753 9.31536 10.3688C9.69342 9.92575 10.1071 9.51837 10.4548 9.05128C10.6852 8.74443 10.8444 8.69101 11.1879 8.84181C12.2278 9.2911 13.2018 9.85768 14.1946 10.4075C14.2778 10.4514 14.3455 10.5196 14.3888 10.6031C14.432 10.6866 14.4487 10.7814 14.4365 10.8746C14.3831 12.6173 13.3893 13.5263 11.6309 13.9284C10.8134 14.0701 9.97235 13.9651 9.21482 13.6268C7.56005 13.1046 6.02045 12.2707 4.67906 11.1699C3.62951 10.2448 2.70093 9.19097 1.9153 8.03333C1.26342 7.16689 0.7328 6.21556 0.338106 5.20567C0.138928 4.70349 0.0256302 4.17139 0.00296978 3.63162Z" fill="white"/>
</svg>
