<svg width="33" height="32" viewBox="0 0 33 32" fill="none" xmlns="http://www.w3.org/2000/svg">
<path d="M16.7012 6.10352e-05C13.5367 6.10352e-05 10.4432 0.938444 7.81206 2.69655C5.18087 4.45465 3.13011 6.95351 1.91911 9.87713C0.708104 12.8007 0.391251 16.0178 1.00861 19.1215C1.62598 22.2252 3.14983 25.0761 5.38747 27.3138C7.62511 29.5514 10.476 31.0753 13.5797 31.6926C16.6834 32.31 19.9005 31.9931 22.8241 30.7821C25.7477 29.5711 28.2466 27.5204 30.0047 24.8892C31.7628 22.258 32.7012 19.1646 32.7012 16.0001C32.7012 11.7566 31.0155 7.68693 28.0149 4.68635C25.0143 1.68577 20.9446 6.10352e-05 16.7012 6.10352e-05ZM19.2862 7.90006H20.4032V12.1001C20.3949 12.1992 20.4203 12.2982 20.4752 12.3811C20.5035 12.4125 20.5387 12.437 20.5781 12.4524C20.6176 12.4679 20.66 12.4739 20.7022 12.4701C20.8144 12.4587 20.9218 12.4187 21.0142 12.3541C21.1432 12.2718 21.2591 12.1707 21.3582 12.0541V7.90206H22.4792V13.3751H21.3592V12.7751C21.1764 12.9811 20.9587 13.1534 20.7162 13.2841C20.5176 13.3941 20.2952 13.4541 20.0682 13.4591C19.9582 13.4666 19.8481 13.4482 19.7465 13.4055C19.6449 13.3628 19.5547 13.2969 19.4832 13.2131C19.3357 12.9979 19.2652 12.7393 19.2832 12.4791V7.90206L19.2862 7.90006ZM15.1342 9.15106C15.1268 8.95891 15.1636 8.76763 15.2416 8.59187C15.3196 8.41611 15.4368 8.26054 15.5842 8.13706C15.9318 7.87246 16.3618 7.73928 16.7982 7.76106C17.2144 7.74589 17.621 7.88879 17.9362 8.16106C18.0805 8.28903 18.1949 8.4472 18.2713 8.62433C18.3477 8.80147 18.3842 8.99325 18.3782 9.18606V12.0121C18.3891 12.2157 18.3561 12.4194 18.2814 12.6092C18.2067 12.799 18.092 12.9705 17.9452 13.1121C17.6109 13.3936 17.1816 13.5367 16.7452 13.5121C16.3155 13.533 15.8944 13.386 15.5712 13.1021C15.4232 12.9585 15.3073 12.7851 15.2313 12.5934C15.1553 12.4017 15.1208 12.1961 15.1302 11.9901V9.15406L15.1342 9.15106ZM12.0882 5.95106L12.9052 8.91506H12.9852L13.7632 5.95106H15.0422L13.5792 10.2981V13.3761H12.3182V10.4361L10.8182 5.95706L12.0882 5.95106ZM26.7322 21.5721C26.7322 22.523 26.3545 23.4351 25.6823 24.1077C25.01 24.7804 24.0982 25.1585 23.1472 25.1591H10.6882C9.73685 25.1591 8.82448 24.7811 8.15179 24.1085C7.47909 23.4358 7.10118 22.5234 7.10118 21.5721V18.6891C7.10105 18.218 7.19374 17.7515 7.37396 17.3162C7.55417 16.881 7.81838 16.4855 8.15149 16.1524C8.4846 15.8193 8.88008 15.5551 9.31534 15.3748C9.75059 15.1946 10.2171 15.1019 10.6882 15.1021H23.1482C23.6191 15.1022 24.0854 15.1951 24.5204 15.3754C24.9554 15.5557 25.3507 15.82 25.6836 16.1531C26.0165 16.4862 26.2805 16.8816 26.4606 17.3167C26.6407 17.7518 26.7333 18.2181 26.7332 18.6891L26.7322 21.5721Z" fill="white"/>
</svg>
