<svg width="123" height="23" viewBox="0 0 123 23" fill="none" xmlns="http://www.w3.org/2000/svg">
<path d="M18.2092 6.10352e-05C19.4433 0.00471392 20.6698 0.176391 21.8482 0.509448C22.7708 0.892047 23.5498 1.51197 24.0892 2.29264C24.6609 3.13318 24.9536 4.10586 24.9322 5.09393C24.7643 6.38583 24.4832 7.66347 24.0915 8.91467L22.4107 12.9898C22.4107 12.9898 21.2902 15.2823 20.73 16.5555C20.2782 17.7013 19.7158 18.8085 19.0492 19.8641C18.3739 20.5291 17.6227 21.1268 16.8082 21.6473C16.0794 21.944 15.3309 22.1993 14.5672 22.4117C13.4467 22.4117 12.606 22.6667 11.4855 22.6667H0L9.80475 0.255099L9.86388 0.0951833L18.2092 6.10352e-05ZM17.3685 6.62209C17.5039 6.48096 17.5786 6.3 17.5786 6.1127C17.5786 5.9254 17.5039 5.74444 17.3685 5.60331C17.258 5.50654 17.125 5.43348 16.9794 5.38947C16.8338 5.34546 16.6792 5.33162 16.527 5.34896H15.1275L9.525 18.0843H10.926C11.2065 18.0843 11.4863 17.8293 12.0465 17.5749C12.3929 17.2848 12.6781 16.9395 12.888 16.5562L17.3685 6.62209Z" fill="white"/>
<path d="M48.0662 0.650408L45.8397 5.40917H34.9372L33.8191 8.24267H42.4852L39.969 13.6518H31.3028L29.9048 16.4853H40.808L38.2917 22.6667H20.4004L30.4623 6.10352e-05H48.3559L48.0662 0.650408Z" fill="white"/>
<path d="M58.3883 0.0198562C59.6174 -0.0423965 60.8503 0.0423418 62.0541 0.271813C62.8818 0.451862 63.6534 0.795867 64.3116 1.27828C64.783 1.71946 65.165 2.23028 65.4404 2.78798C65.6719 3.35108 65.7682 3.95125 65.7229 4.54964C65.7675 5.06586 65.6705 5.58399 65.4404 6.05934L58.1058 22.6667H50.7689L53.0264 17.6344H49.9219L47.6644 22.6667H40.0449L48.2288 4.54896C48.5207 3.92185 48.8999 3.32998 49.3575 2.7873L50.4863 1.78083C50.9903 1.47072 51.5312 1.21128 52.0992 1.00726C52.887 0.687696 53.7196 0.464368 54.5744 0.343315C55.8225 0.0770211 57.1063 -0.0318591 58.3883 0.0198562ZM57.5414 6.81385C57.6178 6.70762 57.9324 5.85573 57.6506 5.60445C57.4036 5.38916 57.0711 5.26971 56.7257 5.27214C56.3106 5.26567 55.9049 5.38258 55.5726 5.60445C55.2256 5.9695 54.9386 6.37671 54.7203 6.81385L52.7446 11.343H55.5703L57.5414 6.81385Z" fill="white"/>
<path d="M77.2625 17.5154L75.0203 22.6667H60.4453L70.5337 6.10352e-05H77.8231L70.2553 17.5154H77.2625Z" fill="white"/>
<path d="M105.024 6.10352e-05L102.469 5.6028H91.3785L89.9568 8.40452H98.77L96.2113 13.7529H87.3989L85.9772 16.5546H97.0644L94.7904 22.6667H76.3125L86.5442 6.10352e-05H105.024Z" fill="white"/>
<path d="M117.092 0.00747766C118.18 -0.0493759 119.258 0.221827 120.163 0.780081C120.935 1.1807 121.529 1.82007 121.838 2.58514C122.187 3.31547 122.377 4.10128 122.4 4.89877C122.348 5.69354 122.16 6.47566 121.841 7.21588C121.544 7.98768 121.066 8.6899 120.442 9.27314C119.909 9.72931 119.35 10.1591 118.767 10.5606C118.232 10.9349 117.673 11.2787 117.092 11.5903L115.417 12.3629C115.925 12.4931 116.381 12.7574 116.728 13.1233C117.075 13.4891 117.299 13.9406 117.372 14.4222C117.651 15.4519 117.372 16.4815 116.813 18.0261L114.859 22.6596H108.716C108.564 22.6769 108.41 22.6627 108.265 22.6181C108.12 22.5735 107.988 22.4996 107.878 22.4018C107.598 22.1441 107.598 21.887 107.598 21.3721L109.832 16.2238C109.933 16.0682 109.986 15.8903 109.986 15.7089C109.986 15.5276 109.933 15.3497 109.832 15.1941C109.722 15.0963 109.59 15.0224 109.445 14.9778C109.3 14.9332 109.146 14.9191 108.994 14.9363H107.599L104.249 22.6617H96.7109L106.483 0.00747766H117.092ZM114.021 6.44328C114.156 6.30064 114.23 6.11775 114.23 5.92844C114.23 5.73914 114.156 5.55624 114.021 5.41361C113.741 5.15584 113.462 4.89877 113.183 4.89877H111.787L110.112 8.50263H111.508C111.953 8.45206 112.371 8.2825 112.711 8.01496C113.084 7.76109 113.396 7.43932 113.629 7.06958L114.021 6.44328Z" fill="white"/>
</svg>
