<svg width="53" height="64" viewBox="0 0 53 64" fill="none" xmlns="http://www.w3.org/2000/svg">
<path d="M50.968 27.846L5.077 0.528C4.53794 0.190139 3.91615 0.00744473 3.28 0C2.41013 0.00660718 1.57831 0.357551 0.966591 0.976021C0.354868 1.59449 0.0130644 2.43012 0.0159988 3.3H0V60.013H0.0159988C0.0130644 60.8829 0.354868 61.7185 0.966591 62.337C1.57831 62.9555 2.41013 63.3064 3.28 63.313C3.93358 63.2893 4.56974 63.096 5.126 62.752L50.967 35.467C51.5243 35.0011 51.9726 34.4186 52.2802 33.7605C52.5878 33.1024 52.7472 32.3849 52.7472 31.6585C52.7472 30.9321 52.5878 30.2145 52.2802 29.5565C51.9726 28.8984 51.5243 28.3159 50.967 27.85L50.968 27.846Z" fill="white"/>
</svg>
