<svg width="33" height="32" viewBox="0 0 33 32" fill="none" xmlns="http://www.w3.org/2000/svg">
<path d="M16.569 18.9921C18.1497 18.9921 19.431 17.7108 19.431 16.1301C19.431 14.5495 18.1497 13.2681 16.569 13.2681C14.9884 13.2681 13.707 14.5495 13.707 16.1301C13.707 17.7108 14.9884 18.9921 16.569 18.9921Z" fill="white"/>
<path d="M20.1455 9.10607H12.9925C12.06 9.06481 11.1487 9.39204 10.4555 10.0171C9.83046 10.7103 9.50323 11.6216 9.54449 12.5541V19.7061C9.52608 20.1826 9.60292 20.658 9.77051 21.1044C9.93809 21.5509 10.1931 21.9594 10.5205 22.3061C11.2198 22.9208 12.1268 23.2465 13.0575 23.2171H20.1455C21.078 23.2583 21.9893 22.9311 22.6825 22.3061C23.0144 21.9755 23.2728 21.5788 23.441 21.1416C23.6091 20.7045 23.6833 20.2368 23.6585 19.7691V12.6181C23.6879 11.6874 23.3622 10.7804 22.7475 10.0811C22.4039 9.74864 21.9956 9.49051 21.548 9.32277C21.1003 9.15503 20.6229 9.08126 20.1455 9.10607ZM16.5695 20.5531C15.3964 20.5531 14.2714 20.0871 13.442 19.2576C12.6125 18.4281 12.1465 17.3031 12.1465 16.1301C12.1465 14.957 12.6125 13.832 13.442 13.0025C14.2714 12.1731 15.3964 11.7071 16.5695 11.7071C17.7425 11.7071 18.8676 12.1731 19.697 13.0025C20.5265 13.832 20.9925 14.957 20.9925 16.1301C20.9925 17.3031 20.5265 18.4281 19.697 19.2576C18.8676 20.0871 17.7425 20.5531 16.5695 20.5531ZM21.1875 12.5531C20.9816 12.5531 20.7803 12.492 20.6091 12.3776C20.438 12.2632 20.3045 12.1007 20.2257 11.9104C20.1469 11.7202 20.1263 11.5109 20.1665 11.309C20.2067 11.107 20.3058 10.9216 20.4514 10.776C20.597 10.6304 20.7825 10.5312 20.9844 10.4911C21.1863 10.4509 21.3956 10.4715 21.5859 10.5503C21.7761 10.6291 21.9387 10.7625 22.0531 10.9337C22.1674 11.1049 22.2285 11.3062 22.2285 11.5121C22.2304 11.6493 22.2047 11.7855 22.1531 11.9127C22.1014 12.0398 22.0248 12.1553 21.9278 12.2524C21.8307 12.3494 21.7152 12.426 21.5881 12.4777C21.4609 12.5293 21.3247 12.555 21.1875 12.5531Z" fill="white"/>
<path d="M16.6992 6.4822e-05C13.5347 6.4822e-05 10.4413 0.938449 7.8101 2.69655C5.17892 4.45465 3.12816 6.95351 1.91715 9.87713C0.706151 12.8007 0.389298 16.0178 1.00666 19.1215C1.62402 22.2252 3.14788 25.0761 5.38552 27.3138C7.62316 29.5514 10.4741 31.0753 13.5778 31.6926C16.6815 32.31 19.8985 31.9931 22.8222 30.7821C25.7458 29.5711 28.2446 27.5204 30.0027 24.8892C31.7608 22.258 32.6992 19.1646 32.6992 16.0001C32.7007 13.8985 32.2878 11.8173 31.4842 9.87542C30.6807 7.93356 29.5022 6.16916 28.0162 4.68313C26.5301 3.19711 24.7657 2.01861 22.8239 1.21505C20.882 0.411484 18.8008 -0.00138149 16.6992 6.4822e-05V6.4822e-05ZM25.2192 19.7721C25.2378 20.4539 25.1208 21.1326 24.8752 21.769C24.6295 22.4053 24.2601 22.9865 23.7882 23.4791C23.3013 23.9357 22.7288 24.2915 22.1037 24.5259C21.4786 24.7604 20.8134 24.8688 20.1462 24.8451H13.0572C12.3901 24.8688 11.7248 24.7604 11.0998 24.5259C10.4747 24.2915 9.9022 23.9357 9.41523 23.4791C8.93105 22.9954 8.55356 22.4156 8.30709 21.7771C8.06063 21.1387 7.95064 20.4556 7.98423 19.7721V12.6181C7.9466 11.942 8.05205 11.2656 8.29368 10.6331C8.53532 10.0005 8.9077 9.42612 9.38649 8.94732C9.86528 8.46853 10.4397 8.09616 11.0722 7.85452C11.7048 7.61289 12.3812 7.50744 13.0572 7.54506H20.2112C20.8825 7.51482 21.5526 7.62585 22.1783 7.87097C22.8039 8.1161 23.3711 8.48985 23.8432 8.96804C24.3153 9.44624 24.6817 10.0182 24.9187 10.647C25.1557 11.2757 25.2581 11.9472 25.2192 12.6181V19.7721Z" fill="white"/>
</svg>
