<svg width="33" height="32" viewBox="0 0 33 32" fill="none" xmlns="http://www.w3.org/2000/svg">
<path d="M9.87109 17.347H11.0291V23.102H12.1491V17.347H13.3061V16.367H9.87109V17.347Z" fill="white"/>
<path d="M16.7451 12.5641C16.8772 12.5715 17.0069 12.5274 17.1071 12.4411C17.1526 12.3961 17.1881 12.342 17.2113 12.2824C17.2346 12.2228 17.2451 12.159 17.2421 12.0951V9.1131C17.2439 9.05751 17.2324 9.00229 17.2086 8.95203C17.1847 8.90178 17.1493 8.85792 17.1051 8.8241C17.0024 8.74567 16.8752 8.706 16.7461 8.7121C16.6251 8.70689 16.5064 8.7468 16.4131 8.8241C16.3714 8.85951 16.3384 8.90392 16.3164 8.95398C16.2944 9.00405 16.284 9.05845 16.2861 9.1131V12.0951C16.2821 12.1579 16.2907 12.2208 16.3113 12.2802C16.3319 12.3396 16.3641 12.3943 16.4061 12.4411C16.451 12.484 16.5043 12.517 16.5627 12.5382C16.621 12.5594 16.6832 12.5682 16.7451 12.5641Z" fill="white"/>
<path d="M19.2111 18.073C19.0511 18.0744 18.8939 18.1149 18.7531 18.191C18.5918 18.2799 18.4478 18.3971 18.3281 18.537V16.367H17.3281V23.102H18.3281V22.722C18.4437 22.8637 18.5883 22.9789 18.7521 23.06C18.9152 23.1346 19.0929 23.1715 19.2721 23.168C19.3985 23.1763 19.5251 23.1552 19.642 23.1065C19.759 23.0577 19.863 22.9826 19.9461 22.887C20.1167 22.6528 20.1998 22.3662 20.1811 22.077V19.322C20.2044 18.9934 20.1163 18.6665 19.9311 18.394C19.8456 18.2868 19.7355 18.2017 19.6102 18.1458C19.4849 18.0899 19.3481 18.065 19.2111 18.073ZM19.1561 21.94C19.1667 22.0604 19.1364 22.1809 19.0701 22.282C19.0366 22.319 18.995 22.3478 18.9485 22.366C18.902 22.3842 18.8519 22.3914 18.8021 22.387C18.7193 22.3867 18.6374 22.3686 18.5621 22.334C18.4738 22.2904 18.3942 22.2311 18.3271 22.159V19.059C18.3841 18.9967 18.4518 18.9452 18.5271 18.907C18.5926 18.8742 18.6649 18.8574 18.7381 18.858C18.7961 18.8547 18.854 18.8645 18.9077 18.8867C18.9614 18.9088 19.0094 18.9428 19.0481 18.986C19.1238 19.0987 19.1591 19.2337 19.1481 19.369L19.1561 21.94Z" fill="white"/>
<path d="M15.5829 21.9091C15.4939 22.0119 15.3905 22.1012 15.2759 22.1741C15.1939 22.2312 15.0984 22.2657 14.9989 22.2741C14.9617 22.277 14.9244 22.2714 14.8897 22.2577C14.8551 22.244 14.824 22.2226 14.7989 22.1951C14.7516 22.1192 14.7299 22.0302 14.7369 21.9411V18.1331H13.7449V22.2881C13.7282 22.5232 13.7894 22.7572 13.9189 22.9541C13.9819 23.0292 14.0617 23.0883 14.1519 23.1267C14.2421 23.1651 14.3401 23.1817 14.4379 23.1751C14.6406 23.1719 14.8393 23.1179 15.0159 23.0181C15.2308 22.8973 15.4241 22.7415 15.5879 22.5571V23.1011H16.5809V18.1341H15.5879V21.9091H15.5829Z" fill="white"/>
<path d="M16.7012 6.10352e-05C13.5367 6.10352e-05 10.4432 0.938444 7.81206 2.69655C5.18087 4.45465 3.13011 6.95351 1.91911 9.87713C0.708104 12.8007 0.391251 16.0178 1.00861 19.1215C1.62598 22.2252 3.14983 25.0761 5.38747 27.3138C7.62511 29.5514 10.476 31.0753 13.5797 31.6926C16.6834 32.31 19.9005 31.9931 22.8241 30.7821C25.7477 29.5711 28.2466 27.5204 30.0047 24.8892C31.7628 22.258 32.7012 19.1646 32.7012 16.0001C32.7012 11.7566 31.0155 7.68693 28.0149 4.68635C25.0143 1.68577 20.9446 6.10352e-05 16.7012 6.10352e-05V6.10352e-05ZM19.2862 7.90006H20.4032V12.1001C20.3949 12.1992 20.4203 12.2982 20.4752 12.3811C20.5035 12.4125 20.5387 12.437 20.5781 12.4524C20.6176 12.4679 20.66 12.4739 20.7022 12.4701C20.8144 12.4587 20.9218 12.4187 21.0142 12.3541C21.1432 12.2718 21.2591 12.1707 21.3582 12.0541V7.90206H22.4792V13.3751H21.3592V12.7751C21.1764 12.9811 20.9587 13.1534 20.7162 13.2841C20.5176 13.3941 20.2952 13.4541 20.0682 13.4591C19.9582 13.4666 19.8481 13.4482 19.7465 13.4055C19.6449 13.3628 19.5547 13.2969 19.4832 13.2131C19.3357 12.9979 19.2652 12.7393 19.2832 12.4791V7.90206L19.2862 7.90006ZM15.1342 9.15106C15.1268 8.95891 15.1636 8.76763 15.2416 8.59187C15.3196 8.41611 15.4368 8.26054 15.5842 8.13706C15.9318 7.87246 16.3618 7.73928 16.7982 7.76106C17.2144 7.74589 17.621 7.88879 17.9362 8.16106C18.0805 8.28903 18.1949 8.4472 18.2713 8.62433C18.3477 8.80147 18.3842 8.99325 18.3782 9.18606V12.0121C18.3891 12.2157 18.3561 12.4194 18.2814 12.6092C18.2067 12.799 18.092 12.9705 17.9452 13.1121C17.6109 13.3936 17.1816 13.5367 16.7452 13.5121C16.3155 13.533 15.8944 13.386 15.5712 13.1021C15.4232 12.9585 15.3073 12.7851 15.2313 12.5934C15.1553 12.4017 15.1208 12.1961 15.1302 11.9901V9.15406L15.1342 9.15106ZM12.0882 5.95106L12.9052 8.91506H12.9852L13.7632 5.95106H15.0422L13.5792 10.2981V13.3761H12.3182V10.4361L10.8182 5.95706L12.0882 5.95106ZM26.7322 21.5721C26.7322 22.523 26.3545 23.4351 25.6823 24.1077C25.01 24.7804 24.0982 25.1585 23.1472 25.1591H10.6882C9.73685 25.1591 8.82448 24.7811 8.15179 24.1085C7.47909 23.4358 7.10118 22.5234 7.10118 21.5721V18.6891C7.10105 18.218 7.19374 17.7515 7.37396 17.3162C7.55417 16.881 7.81838 16.4855 8.15149 16.1524C8.4846 15.8193 8.88008 15.5551 9.31534 15.3748C9.75059 15.1946 10.2171 15.1019 10.6882 15.1021H23.1482C23.6191 15.1022 24.0854 15.1951 24.5204 15.3754C24.9554 15.5557 25.3507 15.82 25.6836 16.1531C26.0165 16.4862 26.2805 16.8816 26.4606 17.3167C26.6407 17.7518 26.7333 18.2181 26.7332 18.6891L26.7322 21.5721Z" fill="white"/>
<path d="M22.2118 18.0101C22.0125 18.0018 21.8135 18.0336 21.6266 18.1035C21.4398 18.1734 21.2688 18.28 21.1238 18.4171C20.9841 18.5532 20.8745 18.717 20.8018 18.898C20.7291 19.079 20.6951 19.2731 20.7018 19.4681V21.7021C20.6782 22.1136 20.8164 22.518 21.0868 22.8291C21.2228 22.9681 21.3869 23.0766 21.5681 23.1473C21.7493 23.218 21.9436 23.2493 22.1378 23.2391C22.34 23.2545 22.5431 23.2284 22.7348 23.1621C22.9264 23.0959 23.1024 22.9911 23.2518 22.8541C23.5237 22.5345 23.6581 22.1204 23.6258 21.7021V21.4471H22.6038V21.6731C22.6231 21.8676 22.5885 22.0638 22.5038 22.2401C22.4604 22.2869 22.4065 22.3229 22.3466 22.3452C22.2866 22.3674 22.2223 22.3752 22.1588 22.3681C22.0945 22.3746 22.0297 22.3643 21.9706 22.3382C21.9115 22.3121 21.8602 22.271 21.8218 22.2191C21.742 22.0487 21.7075 21.8606 21.7218 21.6731V20.7361H23.6218V19.4691C23.6483 19.0743 23.517 18.6851 23.2568 18.3871C23.1176 18.2562 22.953 18.1553 22.7733 18.0905C22.5936 18.0256 22.4025 17.9983 22.2118 18.0101ZM22.6038 19.9641H21.7268V19.4641C21.7118 19.3085 21.7468 19.1523 21.8268 19.0181C21.8686 18.9696 21.9213 18.9319 21.9806 18.9081C22.04 18.8842 22.1042 18.875 22.1678 18.8811C22.2298 18.8753 22.2923 18.8848 22.3498 18.9087C22.4073 18.9326 22.4581 18.9701 22.4978 19.0181C22.5774 19.1524 22.6124 19.3086 22.5978 19.4641V19.9641H22.6038Z" fill="white"/>
</svg>
