<svg width="33" height="32" viewBox="0 0 33 32" fill="none" xmlns="http://www.w3.org/2000/svg">
<path d="M16.7012 6.10352e-05C13.5367 6.10352e-05 10.4432 0.938444 7.81206 2.69655C5.18087 4.45465 3.13011 6.95351 1.91911 9.87713C0.708104 12.8007 0.391251 16.0178 1.00861 19.1215C1.62598 22.2252 3.14983 25.0761 5.38747 27.3138C7.62511 29.5514 10.476 31.0753 13.5797 31.6926C16.6834 32.31 19.9005 31.9931 22.8241 30.7821C25.7477 29.5711 28.2466 27.5204 30.0047 24.8892C31.7628 22.258 32.7012 19.1646 32.7012 16.0001C32.7012 11.7566 31.0155 7.68693 28.0149 4.68635C25.0143 1.68577 20.9446 6.10352e-05 16.7012 6.10352e-05V6.10352e-05ZM25.6122 23.7721C25.6106 23.9435 25.5752 24.1129 25.5079 24.2705C25.4406 24.4282 25.3428 24.571 25.2201 24.6907C25.0974 24.8104 24.9523 24.9046 24.793 24.968C24.6338 25.0314 24.4636 25.0627 24.2922 25.0601H9.07918C8.90779 25.0627 8.73757 25.0314 8.57832 24.968C8.41906 24.9046 8.27392 24.8104 8.15123 24.6907C8.02855 24.571 7.93075 24.4282 7.86347 24.2705C7.79618 24.1129 7.76074 23.9435 7.75918 23.7721V8.38006C7.76074 8.20866 7.79618 8.03926 7.86347 7.88161C7.93075 7.72396 8.02855 7.58117 8.15123 7.46146C8.27392 7.34175 8.41906 7.24749 8.57832 7.18409C8.73757 7.12069 8.90779 7.08942 9.07918 7.09206H24.2922C24.4636 7.08942 24.6338 7.12069 24.793 7.18409C24.9523 7.24749 25.0974 7.34175 25.2201 7.46146C25.3428 7.58117 25.4406 7.72396 25.5079 7.88161C25.5752 8.03926 25.6106 8.20866 25.6122 8.38006V23.7721V23.7721Z" fill="white"/>
<path d="M19.7882 13.8301C19.2995 13.81 18.8146 13.9241 18.3862 14.1602C17.9578 14.3963 17.6023 14.7452 17.3582 15.1691V15.1961H17.3402C17.3472 15.1878 17.3532 15.1787 17.3582 15.1691V14.0201H14.6582C14.6942 14.7801 14.6582 22.1311 14.6582 22.1311H17.3582V17.6011C17.3477 17.3782 17.3778 17.1552 17.4472 16.9431C17.5483 16.6563 17.7353 16.4075 17.9827 16.2308C18.2302 16.054 18.5261 15.9577 18.8302 15.9551C19.8072 15.9551 20.1972 16.7001 20.1972 17.7901V22.1301H22.8972V17.4801C22.8942 14.9891 21.5622 13.8301 19.7882 13.8301Z" fill="white"/>
<path d="M11.8376 10.1081C11.6432 10.0877 11.4467 10.1081 11.2606 10.1679C11.0746 10.2278 10.903 10.3258 10.7569 10.4557C10.6108 10.5856 10.4934 10.7445 10.4122 10.9223C10.331 11.1001 10.2878 11.2929 10.2853 11.4883C10.2828 11.6838 10.321 11.8776 10.3976 12.0574C10.4743 12.2373 10.5875 12.3992 10.7302 12.5328C10.8729 12.6664 11.0419 12.7687 11.2264 12.8334C11.4108 12.898 11.6068 12.9234 11.8016 12.9081H11.8196C12.0151 12.9289 12.2128 12.9085 12.3999 12.8482C12.587 12.7879 12.7594 12.6892 12.9059 12.5582C13.0525 12.4272 13.17 12.267 13.2509 12.0878C13.3318 11.9087 13.3742 11.7146 13.3755 11.518C13.3768 11.3214 13.3368 11.1268 13.2583 10.9466C13.1797 10.7664 13.0642 10.6047 12.9194 10.4719C12.7745 10.339 12.6034 10.238 12.417 10.1754C12.2307 10.1127 12.0334 10.0898 11.8376 10.1081Z" fill="white"/>
<path d="M13.1697 14.0211H10.4727V22.1321H13.1697V14.0211Z" fill="white"/>
</svg>
