<svg width="14" height="15" viewBox="0 0 14 15" fill="none" xmlns="http://www.w3.org/2000/svg">
<path d="M11.1789 2.84473C9.94916 1.61426 8.31151 0.9375 6.57114 0.9375C2.97888 0.9375 0.0557622 3.85547 0.0557622 7.44141C0.0557622 8.58691 0.355117 9.70605 0.924479 10.6934L0 14.0625L3.45432 13.1572C4.40522 13.6758 5.47644 13.9482 6.5682 13.9482H6.57114C10.1605 13.9482 13.1481 11.0303 13.1481 7.44434C13.1481 5.70703 12.4086 4.0752 11.1789 2.84473ZM6.57114 12.8525C5.59677 12.8525 4.64294 12.5918 3.81238 12.0996L3.61574 11.9824L1.56721 12.5186L2.1131 10.5234L1.98396 10.3184C1.44101 9.45703 1.15633 8.46387 1.15633 7.44141C1.15633 4.46191 3.58639 2.03613 6.57407 2.03613C8.02096 2.03613 9.37979 2.59863 10.4011 3.62109C11.4225 4.64355 12.0505 6 12.0476 7.44434C12.0476 10.4268 9.55589 12.8525 6.57114 12.8525ZM9.54121 8.80371C9.37979 8.72168 8.57858 8.3291 8.4289 8.27637C8.27922 8.2207 8.17063 8.19434 8.06205 8.3584C7.95346 8.52246 7.64236 8.88574 7.54551 8.99707C7.4516 9.10547 7.35474 9.12012 7.19333 9.03809C6.23657 8.56055 5.60851 8.18555 4.97751 7.10449C4.81023 6.81738 5.1448 6.83789 5.45589 6.2168C5.50872 6.1084 5.48231 6.01465 5.44122 5.93262C5.40013 5.85059 5.07436 5.05078 4.93936 4.72559C4.80729 4.40918 4.67229 4.45312 4.5725 4.44727C4.47859 4.44141 4.37 4.44141 4.26141 4.44141C4.15282 4.44141 3.97673 4.48242 3.82705 4.64355C3.67737 4.80762 3.25769 5.2002 3.25769 6C3.25769 6.7998 3.84172 7.57324 3.92097 7.68164C4.00314 7.79004 5.06849 9.43066 6.70321 10.1367C7.73628 10.582 8.14129 10.6201 8.65782 10.5439C8.97185 10.4971 9.62045 10.1514 9.75546 9.77051C9.89046 9.38965 9.89046 9.06445 9.84937 8.99707C9.81122 8.92383 9.70263 8.88281 9.54121 8.80371Z" fill="white"/>
</svg>
